<svg width="48" height="48" viewBox="0 0 48 48" fill="none" xmlns="http://www.w3.org/2000/svg">
<g filter="url(#filter0_d_15122_51912)">
<rect x="8" y="8" width="32" height="32" rx="16" fill="white"/>
<mask id="mask0_15122_51912" style="mask-type:alpha" maskUnits="userSpaceOnUse" x="16" y="16" width="16" height="16">
<path fill-rule="evenodd" clip-rule="evenodd" d="M24.6709 28.344C24.8488 28.5242 24.9933 28.8378 24.726 29.1504C24.4587 29.4629 24.0577 29.315 23.9289 29.1504L18.7763 24.2533C18.6301 24.0944 18.6301 23.8344 18.7763 23.6755L23.9289 18.883C24.0746 18.7247 24.4031 18.5245 24.726 18.8136C25.0489 19.1028 24.8165 19.5009 24.6709 19.6598L21.2866 23.3334H30C30.3682 23.3334 30.6667 23.6319 30.6667 24.0001C30.6667 24.3683 30.3682 24.6667 30 24.6667L21.2905 24.6667L24.6709 28.344Z" fill="#414547"/>
</mask>
<g mask="url(#mask0_15122_51912)">
<rect x="8" y="8" width="32" height="32" fill="#676E73"/>
</g>
<rect x="8.5" y="8.5" width="31" height="31" rx="15.5" stroke="#B2B9BF"/>
</g>
<defs>
<filter id="filter0_d_15122_51912" x="6" y="8" width="36" height="36" filterUnits="userSpaceOnUse" color-interpolation-filters="sRGB">
<feFlood flood-opacity="0" result="BackgroundImageFix"/>
<feColorMatrix in="SourceAlpha" type="matrix" values="0 0 0 0 0 0 0 0 0 0 0 0 0 0 0 0 0 0 127 0" result="hardAlpha"/>
<feOffset dy="2"/>
<feGaussianBlur stdDeviation="1"/>
<feColorMatrix type="matrix" values="0 0 0 0 0 0 0 0 0 0 0 0 0 0 0 0 0 0 0.1 0"/>
<feBlend mode="normal" in2="BackgroundImageFix" result="effect1_dropShadow_15122_51912"/>
<feBlend mode="normal" in="SourceGraphic" in2="effect1_dropShadow_15122_51912" result="shape"/>
</filter>
</defs>
</svg>
