<svg width="24" height="24" viewBox="0 0 24 24" fill="none" xmlns="http://www.w3.org/2000/svg">
<mask id="mask0_15324_79058" style="mask-type:alpha" maskUnits="userSpaceOnUse" x="4" y="4" width="16" height="16">
<path fill-rule="evenodd" clip-rule="evenodd" d="M7.85976 6.87125C7.5871 6.59858 7.14415 6.59858 6.87149 6.87125C6.59883 7.14391 6.59883 7.58685 6.87149 7.85951L11.0122 12.0002L6.87149 16.1409C6.59883 16.4136 6.59883 16.8565 6.87149 17.1292L6.87216 17.1298C7.00859 17.2649 7.18738 17.3334 7.36614 17.3334C7.54473 17.3334 7.72396 17.265 7.85976 17.1292L12.0005 12.9885L16.1411 17.1292L16.1418 17.1298C16.2783 17.2649 16.457 17.3334 16.6358 17.3334C16.8144 17.3334 16.9936 17.265 17.1294 17.1292C17.4021 16.8565 17.4021 16.4136 17.1294 16.1409L12.9887 12.0002L17.1294 7.85951C17.4021 7.58685 17.4021 7.14391 17.1294 6.87125C16.8568 6.59858 16.4138 6.59858 16.1411 6.87125L12.0005 11.0119L7.85976 6.87125Z" fill="#414547"/>
</mask>
<g mask="url(#mask0_15324_79058)">
<rect width="24" height="24" fill="#676E73"/>
</g>
<rect x="0.5" y="0.5" width="23" height="23" rx="11.5" stroke="#676E73"/>
</svg>
