<svg width="36" height="36" viewBox="0 0 36 36" fill="none" xmlns="http://www.w3.org/2000/svg">
<path d="M0 18C0 8.05888 8.05888 0 18 0C27.9411 0 36 8.05888 36 18C36 27.9411 27.9411 36 18 36C8.05888 36 0 27.9411 0 18Z" fill="#D60F0F"/>
<path fill-rule="evenodd" clip-rule="evenodd" d="M16.3519 8.83337L16.5627 8.83594C20.7237 8.94442 24.0085 12.4011 23.9008 16.5583C23.8604 18.1462 23.3308 19.6047 22.4606 20.7973L22.3035 21.005L26.9733 25.9192C27.2236 26.1829 27.2285 26.5872 27.0013 26.8636L26.9397 26.9298L26.9144 26.9535C26.6435 27.2098 26.2306 27.2344 25.9377 27.0349L25.861 26.9749L20.7933 22.4602C19.4992 23.3998 17.8958 23.9369 16.1739 23.8925C12.0129 23.7841 8.72812 20.3274 8.83583 16.1702C8.94171 12.082 12.287 8.83978 16.3519 8.83337ZM16.3679 10.3424C13.048 10.3424 10.356 13.0336 10.356 16.3543C10.356 19.6743 13.048 22.3655 16.3679 22.3655C19.6887 22.3655 22.3799 19.6743 22.3799 16.3543C22.3799 13.0336 19.6887 10.3424 16.3679 10.3424Z" fill="white"/>
</svg>
