<svg width="36" height="36" viewBox="0 0 36 36" fill="none" xmlns="http://www.w3.org/2000/svg">
<path d="M0 18C0 8.05887 8.05887 0 18 0V0C27.9411 0 36 8.05887 36 18V18C36 27.9411 27.9411 36 18 36V36C8.05887 36 0 27.9411 0 18V18Z" fill="white"/>
<path fill-rule="evenodd" clip-rule="evenodd" d="M18 19.2983L12.521 24.4489C12.1954 24.7496 11.6834 24.7364 11.3719 24.425L11.5673 24.6204C11.2582 24.3113 11.2545 23.8054 11.5643 23.4957L16.8772 18.1842C16.8445 18.1512 16.8133 18.1196 16.7839 18.0896L11.5499 12.5259C11.2511 12.2007 11.2638 11.6823 11.5729 11.3732L11.3775 11.5686C11.689 11.2572 12.1906 11.2538 12.5025 11.5656L18 17.0617L23.4976 11.5656C23.8094 11.2538 24.311 11.2572 24.6225 11.5686L24.4271 11.3732C24.7363 11.6823 24.7489 12.2007 24.4502 12.5259L19.2161 18.0896C19.1867 18.1196 19.1555 18.1512 19.1229 18.1842L24.4357 23.4957C24.7455 23.8054 24.7419 24.3113 24.4327 24.6204L24.6281 24.425C24.3167 24.7364 23.8047 24.7496 23.479 24.4489L18 19.2983Z" fill="#333333"/>
</svg>
