<svg width="20" height="20" viewBox="0 0 20 20" fill="none" xmlns="http://www.w3.org/2000/svg">
<path d="M10.17 5.8335C9.9137 5.8335 9.69397 5.92871 9.50354 6.13379L3.92248 11.832C3.76135 11.9932 3.67346 12.1982 3.67346 12.4399C3.67346 12.9233 4.05432 13.3115 4.54504 13.3115C4.78674 13.3115 4.99914 13.209 5.1676 13.0479L10.17 7.91357L15.1725 13.0479C15.3409 13.209 15.5607 13.3115 15.795 13.3115C16.2858 13.3115 16.6666 12.9233 16.6666 12.4399C16.6666 12.1982 16.5787 11.9932 16.4176 11.832L10.8439 6.13379C10.6461 5.92871 10.4264 5.8335 10.17 5.8335Z" fill="#D60F0F"/>
</svg>
